<svg xmlns="http://www.w3.org/2000/svg" width="1200" height="800" viewBox="0 0 1200 800" role="img" aria-labelledby="title desc">
  <title id="title">Riesgo sanitario</title>
  <desc id="desc">Ilustracion de personal de salud y simbolo medico</desc>
  <defs>
    <linearGradient id="bg" x1="0" y1="0" x2="1" y2="1">
      <stop offset="0%" stop-color="#113239"/>
      <stop offset="100%" stop-color="#0d2127"/>
    </linearGradient>
  </defs>
  <rect width="1200" height="800" fill="url(#bg)"/>
  <circle cx="160" cy="150" r="170" fill="#1fb5a9" opacity="0.16"/>
  <circle cx="1040" cy="660" r="210" fill="#3f4f3c" opacity="0.16"/>
  <g transform="translate(150 170)">
    <rect x="0" y="90" width="320" height="360" rx="26" fill="#e4edf1"/>
    <circle cx="160" cy="120" r="66" fill="#f6d2b5"/>
    <rect x="100" y="180" width="120" height="44" rx="18" fill="#ffffff"/>
    <rect x="130" y="196" width="60" height="8" rx="4" fill="#9ab0bc"/>
    <rect x="58" y="250" width="204" height="180" rx="24" fill="#ffffff"/>
    <rect x="144" y="286" width="32" height="108" rx="8" fill="#1fb5a9"/>
    <rect x="106" y="324" width="108" height="32" rx="8" fill="#1fb5a9"/>
  </g>
  <g transform="translate(560 130)">
    <rect x="0" y="60" width="500" height="430" rx="28" fill="#f5f8fa" stroke="#c7d4db" stroke-width="4"/>
    <rect x="34" y="96" width="432" height="64" rx="14" fill="#dfeaf0"/>
    <circle cx="110" cy="128" r="16" fill="#1fb5a9"/>
    <circle cx="170" cy="128" r="16" fill="#9ac2d0"/>
    <circle cx="230" cy="128" r="16" fill="#9ac2d0"/>
    <rect x="80" y="210" width="340" height="40" rx="12" fill="#e8f0f4"/>
    <rect x="80" y="270" width="240" height="24" rx="10" fill="#d5e2e9"/>
    <rect x="80" y="312" width="280" height="24" rx="10" fill="#d5e2e9"/>
    <rect x="80" y="354" width="220" height="24" rx="10" fill="#d5e2e9"/>
    <circle cx="395" cy="325" r="72" fill="#1fb5a9" opacity="0.18"/>
    <rect x="385" y="286" width="20" height="78" rx="8" fill="#1fb5a9"/>
    <rect x="356" y="315" width="78" height="20" rx="8" fill="#1fb5a9"/>
  </g>
  <text x="90" y="705" fill="#e9f8f6" font-size="52" font-family="Arial, sans-serif" font-weight="700">Riesgo Sanitario</text>
  <text x="90" y="748" fill="#b5cdce" font-size="28" font-family="Arial, sans-serif">Prevencion de brotes, higiene y control epidemiologico</text>
</svg>
