<svg xmlns="http://www.w3.org/2000/svg" width="1200" height="800" viewBox="0 0 1200 800" role="img" aria-labelledby="title desc">
  <title id="title">Riesgo de seguridad</title>
  <desc id="desc">Ilustracion de camara de vigilancia y control de acceso</desc>
  <defs>
    <linearGradient id="bg" x1="0" y1="0" x2="1" y2="1">
      <stop offset="0%" stop-color="#1f2a32"/>
      <stop offset="100%" stop-color="#11181d"/>
    </linearGradient>
    <linearGradient id="beam" x1="0" y1="0" x2="1" y2="1">
      <stop offset="0%" stop-color="#1fb5a9" stop-opacity="0.55"/>
      <stop offset="100%" stop-color="#1fb5a9" stop-opacity="0.05"/>
    </linearGradient>
  </defs>
  <rect width="1200" height="800" fill="url(#bg)"/>
  <g opacity="0.18">
    <circle cx="130" cy="130" r="170" fill="#1fb5a9"/>
    <circle cx="1080" cy="680" r="190" fill="#3f4f3c"/>
  </g>
  <g transform="translate(210 170)">
    <rect x="0" y="170" width="520" height="120" rx="24" fill="#dde3e6"/>
    <rect x="80" y="110" width="360" height="100" rx="18" fill="#f4f7f8" stroke="#cfd8dc" stroke-width="4"/>
    <circle cx="440" cy="160" r="30" fill="#2b3b45"/>
    <circle cx="440" cy="160" r="14" fill="#1fb5a9"/>
    <rect x="500" y="190" width="80" height="18" rx="9" fill="#9fb0b8"/>
    <rect x="-40" y="270" width="90" height="20" rx="10" fill="#7a8a92"/>
  </g>
  <polygon points="730,330 1160,220 1160,640 730,560" fill="url(#beam)"/>
  <g transform="translate(800 300)">
    <rect x="0" y="0" width="190" height="300" rx="18" fill="#202c33" stroke="#4e676f" stroke-width="3"/>
    <rect x="20" y="28" width="150" height="38" rx="8" fill="#0f6b63"/>
    <circle cx="95" cy="155" r="52" fill="#121a1f" stroke="#4d646b" stroke-width="3"/>
    <rect x="85" y="120" width="20" height="58" rx="8" fill="#2fd0c3"/>
    <circle cx="95" cy="194" r="8" fill="#2fd0c3"/>
    <rect x="45" y="250" width="100" height="22" rx="10" fill="#3a4c56"/>
  </g>
  <text x="90" y="705" fill="#ecf8f7" font-size="52" font-family="Arial, sans-serif" font-weight="700">
    Riesgo de Seguridad
  </text>
  <text x="90" y="748" fill="#b7c6cb" font-size="28" font-family="Arial, sans-serif">
    Control de acceso y vigilancia institucional
  </text>
</svg>
