<svg xmlns="http://www.w3.org/2000/svg" width="1200" height="800" viewBox="0 0 1200 800" role="img" aria-labelledby="title desc">
  <title id="title">Riesgo sismico</title>
  <desc id="desc">Ilustracion de edificio con grietas y ondas sismicas</desc>
  <defs>
    <linearGradient id="bg" x1="0" y1="0" x2="1" y2="1">
      <stop offset="0%" stop-color="#1f2d36"/>
      <stop offset="100%" stop-color="#121b21"/>
    </linearGradient>
  </defs>
  <rect width="1200" height="800" fill="url(#bg)"/>
  <circle cx="140" cy="140" r="170" fill="#1fb5a9" opacity="0.16"/>
  <circle cx="1060" cy="680" r="210" fill="#3f4f3c" opacity="0.16"/>
  <rect x="260" y="190" width="300" height="420" rx="14" fill="#dbe3e8"/>
  <rect x="610" y="150" width="340" height="460" rx="14" fill="#c8d4db"/>
  <g fill="#94a5b0">
    <rect x="300" y="240" width="48" height="58" rx="6"/>
    <rect x="370" y="240" width="48" height="58" rx="6"/>
    <rect x="440" y="240" width="48" height="58" rx="6"/>
    <rect x="300" y="330" width="48" height="58" rx="6"/>
    <rect x="370" y="330" width="48" height="58" rx="6"/>
    <rect x="440" y="330" width="48" height="58" rx="6"/>
    <rect x="300" y="420" width="48" height="58" rx="6"/>
    <rect x="370" y="420" width="48" height="58" rx="6"/>
    <rect x="440" y="420" width="48" height="58" rx="6"/>
    <rect x="660" y="210" width="56" height="64" rx="6"/>
    <rect x="740" y="210" width="56" height="64" rx="6"/>
    <rect x="820" y="210" width="56" height="64" rx="6"/>
    <rect x="660" y="304" width="56" height="64" rx="6"/>
    <rect x="740" y="304" width="56" height="64" rx="6"/>
    <rect x="820" y="304" width="56" height="64" rx="6"/>
    <rect x="660" y="398" width="56" height="64" rx="6"/>
    <rect x="740" y="398" width="56" height="64" rx="6"/>
    <rect x="820" y="398" width="56" height="64" rx="6"/>
  </g>
  <polyline points="520,210 470,280 530,350 470,430 560,530" fill="none" stroke="#d33b2e" stroke-width="14" stroke-linecap="round" stroke-linejoin="round"/>
  <g fill="none" stroke="#1fb5a9" stroke-width="8" opacity="0.8">
    <path d="M110 520 q60 -40 120 0 q60 40 120 0 q60 -40 120 0 q60 40 120 0 q60 -40 120 0 q60 40 120 0 q60 -40 120 0"/>
    <path d="M120 570 q60 -40 120 0 q60 40 120 0 q60 -40 120 0 q60 40 120 0 q60 -40 120 0 q60 40 120 0 q60 -40 120 0"/>
  </g>
  <text x="90" y="705" fill="#edf8f7" font-size="52" font-family="Arial, sans-serif" font-weight="700">Riesgo Sismico</text>
  <text x="90" y="748" fill="#b7c7cd" font-size="28" font-family="Arial, sans-serif">Movimientos de suelo y afectacion estructural</text>
</svg>
