<svg xmlns="http://www.w3.org/2000/svg" width="1000" height="700" viewBox="0 0 1000 700" role="img" aria-labelledby="title desc">
  <title id="title">Capacitacion de brigadas</title>
  <desc id="desc">Ilustracion de equipo en entrenamiento con instructor</desc>
  <defs>
    <linearGradient id="bg" x1="0" y1="0" x2="1" y2="1">
      <stop offset="0%" stop-color="#183038"/>
      <stop offset="100%" stop-color="#102128"/>
    </linearGradient>
  </defs>
  <rect width="1000" height="700" fill="url(#bg)"/>
  <circle cx="120" cy="120" r="130" fill="#1fb5a9" opacity="0.16"/>
  <circle cx="920" cy="610" r="170" fill="#3f4f3c" opacity="0.16"/>
  <rect x="110" y="120" width="780" height="430" rx="24" fill="#f3f7f9" stroke="#c6d4db" stroke-width="3"/>
  <rect x="150" y="170" width="380" height="260" rx="16" fill="#dde8ee"/>
  <rect x="170" y="190" width="340" height="220" rx="10" fill="#223741"/>
  <g stroke="#5ed8cc" stroke-width="5" fill="none" opacity="0.9">
    <line x1="195" y1="225" x2="485" y2="225"/>
    <line x1="195" y1="265" x2="455" y2="265"/>
    <line x1="195" y1="305" x2="420" y2="305"/>
  </g>
  <g transform="translate(560 170)">
    <circle cx="90" cy="80" r="36" fill="#f2c7a7"/>
    <rect x="55" y="115" width="70" height="105" rx="20" fill="#0f6b63"/>
    <rect x="38" y="140" width="22" height="80" rx="10" fill="#0f6b63"/>
    <rect x="120" y="140" width="22" height="80" rx="10" fill="#0f6b63"/>
    <rect x="62" y="220" width="22" height="80" rx="10" fill="#23414f"/>
    <rect x="96" y="220" width="22" height="80" rx="10" fill="#23414f"/>
  </g>
  <g transform="translate(680 200)">
    <circle cx="58" cy="70" r="30" fill="#f3ceb1"/>
    <rect x="30" y="102" width="56" height="88" rx="18" fill="#3f4f3c"/>
    <rect x="18" y="122" width="16" height="60" rx="8" fill="#3f4f3c"/>
    <rect x="82" y="122" width="16" height="60" rx="8" fill="#3f4f3c"/>
    <rect x="36" y="188" width="16" height="64" rx="8" fill="#324237"/>
    <rect x="64" y="188" width="16" height="64" rx="8" fill="#324237"/>
  </g>
  <g transform="translate(780 210)">
    <circle cx="54" cy="66" r="28" fill="#f3ceb1"/>
    <rect x="28" y="96" width="52" height="84" rx="18" fill="#1fb5a9"/>
    <rect x="18" y="114" width="14" height="54" rx="7" fill="#1fb5a9"/>
    <rect x="80" y="114" width="14" height="54" rx="7" fill="#1fb5a9"/>
    <rect x="34" y="176" width="14" height="60" rx="7" fill="#1c6f69"/>
    <rect x="60" y="176" width="14" height="60" rx="7" fill="#1c6f69"/>
  </g>
  <text x="78" y="620" fill="#e8f8f6" font-size="46" font-family="Arial, sans-serif" font-weight="700">Capacitacion de Brigadas</text>
  <text x="78" y="655" fill="#b5cccf" font-size="24" font-family="Arial, sans-serif">Entrenamiento por roles y coordinacion operativa</text>
</svg>
