<svg xmlns="http://www.w3.org/2000/svg" width="1000" height="700" viewBox="0 0 1000 700" role="img" aria-labelledby="title desc">
  <title id="title">Simulacros medibles</title>
  <desc id="desc">Ilustracion de cronometro, checklists y evaluacion de tiempos</desc>
  <defs>
    <linearGradient id="bg" x1="0" y1="0" x2="1" y2="1">
      <stop offset="0%" stop-color="#1a3037"/>
      <stop offset="100%" stop-color="#102127"/>
    </linearGradient>
  </defs>
  <rect width="1000" height="700" fill="url(#bg)"/>
  <circle cx="120" cy="120" r="130" fill="#1fb5a9" opacity="0.16"/>
  <circle cx="910" cy="610" r="170" fill="#3f4f3c" opacity="0.15"/>
  <rect x="100" y="120" width="800" height="430" rx="24" fill="#f4f8fa" stroke="#c7d5dc" stroke-width="3"/>
  <g transform="translate(180 180)">
    <rect x="0" y="20" width="300" height="300" rx="20" fill="#dfe9ef"/>
    <circle cx="150" cy="170" r="108" fill="#ffffff" stroke="#0f6b63" stroke-width="12"/>
    <line x1="150" y1="170" x2="150" y2="104" stroke="#1fb5a9" stroke-width="10" stroke-linecap="round"/>
    <line x1="150" y1="170" x2="200" y2="202" stroke="#3f4f3c" stroke-width="10" stroke-linecap="round"/>
    <rect x="126" y="0" width="48" height="34" rx="10" fill="#0f6b63"/>
  </g>
  <g transform="translate(520 170)">
    <rect x="0" y="0" width="300" height="320" rx="16" fill="#e4edf2"/>
    <rect x="20" y="24" width="260" height="36" rx="10" fill="#cfdde6"/>
    <g stroke="#2f4d59" stroke-width="4" stroke-linecap="round" fill="none">
      <line x1="70" y1="98" x2="250" y2="98"/>
      <line x1="70" y1="148" x2="250" y2="148"/>
      <line x1="70" y1="198" x2="250" y2="198"/>
      <line x1="70" y1="248" x2="250" y2="248"/>
    </g>
    <g fill="none" stroke="#1fb5a9" stroke-width="6" stroke-linecap="round" stroke-linejoin="round">
      <polyline points="34,98 48,112 62,88"/>
      <polyline points="34,148 48,162 62,138"/>
      <polyline points="34,198 48,212 62,188"/>
      <polyline points="34,248 48,262 62,238"/>
    </g>
  </g>
  <text x="78" y="620" fill="#eaf8f6" font-size="46" font-family="Arial, sans-serif" font-weight="700">Simulacros Medibles</text>
  <text x="78" y="655" fill="#b7cdcf" font-size="24" font-family="Arial, sans-serif">Evaluacion de tiempos y mejora continua</text>
</svg>
