<svg xmlns="http://www.w3.org/2000/svg" width="960" height="720" viewBox="0 0 960 720" role="img" aria-labelledby="title desc">
  <title id="title">Linterna y baterias</title>
  <desc id="desc">Linterna encendida y baterias de repuesto</desc>
  <defs>
    <linearGradient id="bg" x1="0" y1="0" x2="1" y2="1">
      <stop offset="0%" stop-color="#1f2537"/>
      <stop offset="100%" stop-color="#141824"/>
    </linearGradient>
    <linearGradient id="beam" x1="0" y1="0" x2="1" y2="0">
      <stop offset="0%" stop-color="#ffe48c" stop-opacity="0.65"/>
      <stop offset="100%" stop-color="#ffe48c" stop-opacity="0.05"/>
    </linearGradient>
  </defs>
  <rect width="960" height="720" fill="url(#bg)"/>
  <circle cx="140" cy="120" r="130" fill="#1fb5a9" opacity="0.13"/>
  <circle cx="840" cy="620" r="180" fill="#3f4f3c" opacity="0.14"/>
  <polygon points="360,340 830,210 830,510 360,380" fill="url(#beam)"/>
  <g transform="translate(210 290)">
    <rect x="0" y="0" width="220" height="120" rx="26" fill="#4d5668"/>
    <rect x="150" y="32" width="96" height="56" rx="12" fill="#8b97ae"/>
    <circle cx="246" cy="60" r="24" fill="#c8d4e7"/>
    <circle cx="246" cy="60" r="12" fill="#f5f7ff"/>
  </g>
  <g transform="translate(260 460)">
    <rect x="0" y="0" width="48" height="142" rx="16" fill="#f0c35a"/>
    <rect x="0" y="16" width="48" height="16" fill="#2d3b53"/>
    <rect x="66" y="0" width="48" height="142" rx="16" fill="#f0c35a"/>
    <rect x="66" y="16" width="48" height="16" fill="#2d3b53"/>
  </g>
  <text x="72" y="655" fill="#f1f5ff" font-size="44" font-family="Arial, sans-serif" font-weight="700">Linterna y Baterias</text>
</svg>
