<svg xmlns="http://www.w3.org/2000/svg" width="960" height="720" viewBox="0 0 960 720" role="img" aria-labelledby="title desc">
  <title id="title">Agua potable</title>
  <desc id="desc">Botella de agua para kit de emergencia</desc>
  <defs>
    <linearGradient id="bg" x1="0" y1="0" x2="1" y2="1">
      <stop offset="0%" stop-color="#173a4a"/>
      <stop offset="100%" stop-color="#0f2732"/>
    </linearGradient>
    <linearGradient id="bottle" x1="0" y1="0" x2="0" y2="1">
      <stop offset="0%" stop-color="#9ee7ff"/>
      <stop offset="100%" stop-color="#58bad8"/>
    </linearGradient>
  </defs>
  <rect width="960" height="720" fill="url(#bg)"/>
  <circle cx="130" cy="130" r="140" fill="#1fb5a9" opacity="0.15"/>
  <circle cx="840" cy="620" r="170" fill="#3f4f3c" opacity="0.14"/>
  <rect x="360" y="160" width="240" height="420" rx="44" fill="url(#bottle)" stroke="#daf5ff" stroke-width="6"/>
  <rect x="420" y="110" width="120" height="70" rx="20" fill="#6bcce4"/>
  <rect x="420" y="94" width="120" height="20" rx="10" fill="#4aaac6"/>
  <rect x="388" y="280" width="184" height="56" rx="16" fill="#e8f9ff" opacity="0.92"/>
  <path d="M420 306 C445 280 480 330 506 304 C525 286 546 305 560 318" fill="none" stroke="#39a4c5" stroke-width="8" stroke-linecap="round"/>
  <g stroke="#79d3ec" stroke-width="7" fill="none" opacity="0.8">
    <path d="M120 520 q56 -28 112 0 q56 28 112 0 q56 -28 112 0 q56 28 112 0 q56 -28 112 0 q56 28 112 0"/>
    <path d="M136 568 q56 -28 112 0 q56 28 112 0 q56 -28 112 0 q56 28 112 0 q56 -28 112 0 q56 28 112 0"/>
  </g>
  <text x="72" y="655" fill="#e9f8fc" font-size="44" font-family="Arial, sans-serif" font-weight="700">Agua Potable</text>
</svg>
