<svg xmlns="http://www.w3.org/2000/svg" width="960" height="720" viewBox="0 0 960 720" role="img" aria-labelledby="title desc">
  <title id="title">Documentos y contactos</title>
  <desc id="desc">Carpeta con documentos y lista de contactos</desc>
  <defs>
    <linearGradient id="bg" x1="0" y1="0" x2="1" y2="1">
      <stop offset="0%" stop-color="#223133"/>
      <stop offset="100%" stop-color="#162224"/>
    </linearGradient>
  </defs>
  <rect width="960" height="720" fill="url(#bg)"/>
  <circle cx="130" cy="120" r="130" fill="#1fb5a9" opacity="0.14"/>
  <circle cx="850" cy="620" r="170" fill="#3f4f3c" opacity="0.14"/>
  <g transform="translate(210 170)">
    <rect x="0" y="40" width="520" height="360" rx="22" fill="#dce6eb" stroke="#b9c7ce" stroke-width="4"/>
    <rect x="34" y="0" width="160" height="70" rx="14" fill="#c7d7df"/>
    <rect x="40" y="96" width="440" height="36" rx="10" fill="#c4d4dc"/>
    <rect x="40" y="150" width="380" height="24" rx="8" fill="#b3c6d0"/>
    <rect x="40" y="190" width="390" height="24" rx="8" fill="#b3c6d0"/>
    <rect x="40" y="230" width="340" height="24" rx="8" fill="#b3c6d0"/>
    <rect x="40" y="270" width="360" height="24" rx="8" fill="#b3c6d0"/>
    <circle cx="450" cy="300" r="48" fill="#1fb5a9" opacity="0.24"/>
    <rect x="440" y="274" width="20" height="52" rx="8" fill="#0f6b63"/>
    <rect x="424" y="290" width="52" height="20" rx="8" fill="#0f6b63"/>
  </g>
  <g transform="translate(630 230)">
    <rect x="0" y="0" width="180" height="250" rx="18" fill="#0f6b63"/>
    <rect x="20" y="30" width="140" height="34" rx="8" fill="#d8f1ed"/>
    <rect x="20" y="86" width="140" height="20" rx="8" fill="#a9d7cf"/>
    <rect x="20" y="118" width="140" height="20" rx="8" fill="#a9d7cf"/>
    <rect x="20" y="150" width="140" height="20" rx="8" fill="#a9d7cf"/>
  </g>
  <text x="72" y="655" fill="#e9f8f6" font-size="44" font-family="Arial, sans-serif" font-weight="700">Documentos y Contactos</text>
</svg>
