<svg xmlns="http://www.w3.org/2000/svg" width="1200" height="800" viewBox="0 0 1200 800" role="img" aria-labelledby="title desc">
  <title id="title">Riesgo de inundacion</title>
  <desc id="desc">Ilustracion de lluvia intensa y nivel alto de agua</desc>
  <defs>
    <linearGradient id="bg" x1="0" y1="0" x2="0" y2="1">
      <stop offset="0%" stop-color="#152938"/>
      <stop offset="100%" stop-color="#0f1e2a"/>
    </linearGradient>
    <linearGradient id="water" x1="0" y1="0" x2="1" y2="0">
      <stop offset="0%" stop-color="#1b9ab1"/>
      <stop offset="100%" stop-color="#0f6b96"/>
    </linearGradient>
  </defs>
  <rect width="1200" height="800" fill="url(#bg)"/>
  <circle cx="210" cy="130" r="150" fill="#1fb5a9" opacity="0.12"/>
  <circle cx="1030" cy="150" r="170" fill="#9ec2db" opacity="0.16"/>
  <g fill="#d7e1e7" opacity="0.88">
    <ellipse cx="280" cy="170" rx="90" ry="36"/>
    <ellipse cx="350" cy="165" rx="80" ry="30"/>
    <ellipse cx="910" cy="170" rx="100" ry="40"/>
    <ellipse cx="990" cy="165" rx="82" ry="30"/>
  </g>
  <g stroke="#83c4df" stroke-width="6" stroke-linecap="round" opacity="0.75">
    <line x1="250" y1="230" x2="230" y2="300"/>
    <line x1="300" y1="230" x2="280" y2="300"/>
    <line x1="350" y1="230" x2="330" y2="300"/>
    <line x1="900" y1="230" x2="880" y2="300"/>
    <line x1="950" y1="230" x2="930" y2="300"/>
    <line x1="1000" y1="230" x2="980" y2="300"/>
  </g>
  <rect x="180" y="320" width="220" height="210" rx="16" fill="#e7eef2"/>
  <polygon points="150,340 290,250 430,340" fill="#95a7b3"/>
  <rect x="260" y="420" width="60" height="110" rx="8" fill="#b7c8d3"/>
  <rect x="470" y="360" width="180" height="170" rx="14" fill="#d8e2e8"/>
  <rect x="700" y="300" width="210" height="230" rx="14" fill="#cdd9e0"/>
  <rect x="970" y="350" width="120" height="180" rx="14" fill="#d5dfe5"/>
  <g transform="translate(0 520)">
    <path d="M0 70 C80 40 160 100 240 70 C320 40 400 100 480 70 C560 40 640 100 720 70 C800 40 880 100 960 70 C1040 40 1120 100 1200 70 L1200 280 L0 280 Z" fill="url(#water)"/>
    <path d="M0 30 C80 0 160 60 240 30 C320 0 400 60 480 30 C560 0 640 60 720 30 C800 0 880 60 960 30 C1040 0 1120 60 1200 30" fill="none" stroke="#7fd6e5" stroke-width="8" opacity="0.75"/>
  </g>
  <text x="90" y="705" fill="#e9f7fc" font-size="52" font-family="Arial, sans-serif" font-weight="700">Riesgo de Inundacion</text>
  <text x="90" y="748" fill="#b5d2df" font-size="28" font-family="Arial, sans-serif">Lluvia extrema, drenajes saturados y desbordamientos</text>
</svg>
